<svg xmlns="http://www.w3.org/2000/svg" viewBox="0 0 1440 320">
  <path fill="#54AA54" fill-opacity="0.3" d="M0,224L48,213.3C96,203,192,181,288,181.3C384,181,480,203,576,224C672,245,768,267,864,261.3C960,256,1056,224,1152,208C1248,192,1344,192,1392,192L1440,192L1440,320L1392,320C1344,320,1248,320,1152,320C1056,320,960,320,864,320C768,320,672,320,576,320C480,320,384,320,288,320C192,320,96,320,48,320L0,320Z"></path>
  <path fill="#54AA54" fill-opacity="0.2" d="M0,288L48,272C96,256,192,224,288,213.3C384,203,480,213,576,229.3C672,245,768,267,864,261.3C960,256,1056,224,1152,213.3C1248,203,1344,213,1392,218.7L1440,224L1440,320L1392,320C1344,320,1248,320,1152,320C1056,320,960,320,864,320C768,320,672,320,576,320C480,320,384,320,288,320C192,320,96,320,48,320L0,320Z"></path>
  <path fill="#54AA54" fill-opacity="0.1" d="M0,288L48,277.3C96,267,192,245,288,234.7C384,224,480,224,576,213.3C672,203,768,181,864,186.7C960,192,1056,224,1152,234.7C1248,245,1344,235,1392,229.3L1440,224L1440,320L1392,320C1344,320,1248,320,1152,320C1056,320,960,320,864,320C768,320,672,320,576,320C480,320,384,320,288,320C192,320,96,320,48,320L0,320Z"></path>
</svg>