<svg xmlns="http://www.w3.org/2000/svg" viewBox="0 0 160 200" width="160" height="200">
  <!-- Head -->
  <rect x="50" y="20" width="60" height="60" fill="#C68D63" />
  
  <!-- Face Features -->
  <rect x="65" y="40" width="10" height="10" fill="#FFFFFF" />
  <rect x="85" y="40" width="10" height="10" fill="#FFFFFF" />
  <rect x="68" y="43" width="4" height="4" fill="#3A3A3A" />
  <rect x="88" y="43" width="4" height="4" fill="#3A3A3A" />
  <rect x="70" y="60" width="20" height="5" fill="#8D6E63" />
  
  <!-- Body -->
  <rect x="50" y="80" width="60" height="60" fill="#54AA54" />
  
  <!-- Arms -->
  <rect x="30" y="80" width="20" height="60" fill="#6CC065" />
  <rect x="110" y="80" width="20" height="60" fill="#6CC065" />
  
  <!-- Legs -->
  <rect x="50" y="140" width="25" height="60" fill="#4B6EB6" />
  <rect x="85" y="140" width="25" height="60" fill="#4B6EB6" />
  
  <!-- Shoes -->
  <rect x="50" y="190" width="25" height="10" fill="#222222" />
  <rect x="85" y="190" width="25" height="10" fill="#222222" />
  
  <!-- Pixelated texture overlays -->
  <rect x="50" y="20" width="60" height="60" fill="url(#skinPattern)" style="opacity:0.1" />
  <rect x="50" y="80" width="60" height="60" fill="url(#shirtPattern)" style="opacity:0.2" />
  <rect x="50" y="140" width="25" height="60" fill="url(#jeansPattern)" style="opacity:0.1" />
  <rect x="85" y="140" width="25" height="60" fill="url(#jeansPattern)" style="opacity:0.1" />
  
  <!-- Patterns -->
  <pattern id="skinPattern" x="0" y="0" width="10" height="10" patternUnits="userSpaceOnUse">
    <rect x="0" y="0" width="5" height="5" fill="#D7966E" />
    <rect x="5" y="5" width="5" height="5" fill="#D7966E" />
  </pattern>
  
  <pattern id="shirtPattern" x="0" y="0" width="10" height="10" patternUnits="userSpaceOnUse">
    <rect x="0" y="0" width="5" height="5" fill="#65CC65" />
    <rect x="5" y="5" width="5" height="5" fill="#4A994A" />
  </pattern>
  
  <pattern id="jeansPattern" x="0" y="0" width="10" height="10" patternUnits="userSpaceOnUse">
    <rect x="0" y="0" width="5" height="5" fill="#5C7EC2" />
    <rect x="5" y="5" width="5" height="5" fill="#3F5E99" />
  </pattern>
</svg>