<svg xmlns="http://www.w3.org/2000/svg" viewBox="0 0 100 100" width="100" height="100">
  <!-- Top (grass) -->
  <rect x="20" y="20" width="60" height="60" fill="#54AA54" />
  
  <!-- Right side (dirt) -->
  <polygon points="80,20 100,40 100,100 80,80" fill="#8B4513" />
  
  <!-- Left side (dirt) -->
  <polygon points="20,20 0,40 0,100 20,80" fill="#7F5F3F" />
  
  <!-- Bottom (dirt) -->
  <polygon points="20,80 80,80 100,100 0,100" fill="#8B4513" />
  
  <!-- Grass texture overlay -->
  <rect x="20" y="20" width="60" height="60" fill="url(#grassPattern)" style="opacity:0.4" />
  
  <!-- Pixel grid for top -->
  <pattern id="grassPattern" x="0" y="0" width="10" height="10" patternUnits="userSpaceOnUse">
    <rect x="1" y="1" width="3" height="3" fill="#6BC45A" />
    <rect x="6" y="6" width="3" height="3" fill="#498F3F" />
  </pattern>
  
  <!-- Dirt texture overlay -->
  <polygon points="80,20 100,40 100,100 80,80" fill="url(#dirtPattern)" style="opacity:0.3" />
  <polygon points="20,20 0,40 0,100 20,80" fill="url(#dirtPattern)" style="opacity:0.3" />
  <polygon points="20,80 80,80 100,100 0,100" fill="url(#dirtPattern)" style="opacity:0.3" />
  
  <!-- Pixel grid for sides -->
  <pattern id="dirtPattern" x="0" y="0" width="10" height="10" patternUnits="userSpaceOnUse">
    <rect x="2" y="2" width="2" height="2" fill="#A66E44" />
    <rect x="7" y="4" width="2" height="2" fill="#7D5436" />
    <rect x="4" y="7" width="2" height="2" fill="#6A472F" />
  </pattern>
</svg>