<svg xmlns="http://www.w3.org/2000/svg" viewBox="0 0 16 16" width="100%" height="100%">
  <!-- Bottle neck -->
  <rect x="7" y="2" width="2" height="2" fill="#5A5A5A" />
  <rect x="6.5" y="3.5" width="3" height="1" fill="#7A7A7A" />
  
  <!-- Bottle body -->
  <path d="M5,5 L4,12 C4,13.1 5.1,14 6,14 L10,14 C10.9,14 12,13.1 12,12 L11,5 Z" fill="#61D3E2" fill-opacity="0.7" />
  
  <!-- Bottle outline -->
  <path d="M5,5 L4,12 C4,13.1 5.1,14 6,14 L10,14 C10.9,14 12,13.1 12,12 L11,5 Z" fill="none" stroke="#5A5A5A" stroke-width="0.5" />
  
  <!-- XP particles -->
  <circle cx="7" cy="8" r="0.6" fill="#7FFF00" />
  <circle cx="9" cy="10" r="0.5" fill="#7FFF00" />
  <circle cx="8" cy="12" r="0.7" fill="#7FFF00" />
  <circle cx="6" cy="10" r="0.4" fill="#7FFF00" />
  <circle cx="10" cy="8" r="0.5" fill="#7FFF00" />
  
  <!-- Bottle cork -->
  <rect x="7" y="1" width="2" height="1" fill="#8B4513" />
</svg> 