<svg xmlns="http://www.w3.org/2000/svg" viewBox="0 0 16 16" width="100%" height="100%">
  <!-- Head base -->
  <rect x="3" y="3" width="10" height="10" rx="2" fill="#C68642" />
  
  <!-- Face features -->
  <!-- Eyes -->
  <rect x="5" y="6" width="2" height="2" rx="0.5" fill="#FFFFFF" />
  <rect x="9" y="6" width="2" height="2" rx="0.5" fill="#FFFFFF" />
  <rect x="5.5" y="7" width="1" height="1" rx="0.5" fill="#000000" />
  <rect x="9.5" y="7" width="1" height="1" rx="0.5" fill="#000000" />
  
  <!-- Mouth -->
  <path d="M6,10 C6,11 10,11 10,10" fill="none" stroke="#8B4513" stroke-width="0.5" />
  
  <!-- Hair -->
  <rect x="3" y="3" width="10" height="3" fill="#4A2700" />
  <rect x="3" y="3" width="2" height="6" fill="#4A2700" />
  <rect x="11" y="3" width="2" height="6" fill="#4A2700" />
  
  <!-- Pixelated edge effect -->
  <rect x="3" y="3" width="1" height="1" fill="#5D4037" />
  <rect x="12" y="3" width="1" height="1" fill="#5D4037" />
  <rect x="3" y="12" width="1" height="1" fill="#A1887F" />
  <rect x="12" y="12" width="1" height="1" fill="#A1887F" />
</svg> 