<svg xmlns="http://www.w3.org/2000/svg" width="600" height="400" viewBox="0 0 600 400">
  <!-- Background with gradient -->
  <linearGradient id="sky-gradient" x1="0%" y1="0%" x2="0%" y2="100%">
    <stop offset="0%" stop-color="#0A1929" />
    <stop offset="100%" stop-color="#1E293B" />
  </linearGradient>
  <rect width="600" height="400" fill="url(#sky-gradient)" />
  
  <!-- Stars -->
  <g id="stars">
    <circle cx="50" cy="50" r="1" fill="white" opacity="0.8" />
    <circle cx="120" cy="30" r="1.5" fill="white" opacity="0.7" />
    <circle cx="200" cy="70" r="1" fill="white" opacity="0.9" />
    <circle cx="280" cy="40" r="1.2" fill="white" opacity="0.8" />
    <circle cx="350" cy="60" r="1" fill="white" opacity="0.7" />
    <circle cx="420" cy="20" r="1.5" fill="white" opacity="0.9" />
    <circle cx="500" cy="80" r="1" fill="white" opacity="0.8" />
    <circle cx="550" cy="30" r="1.2" fill="white" opacity="0.7" />
  </g>
  
  <!-- Moon -->
  <circle cx="500" cy="80" r="40" fill="#FFFDE7" opacity="0.9" />
  <circle cx="485" cy="65" r="10" fill="#E0E0E0" opacity="0.6" />
  <circle cx="515" cy="95" r="8" fill="#E0E0E0" opacity="0.6" />
  
  <!-- Minecraft Grid -->
  <pattern id="minecraft-grid" patternUnits="userSpaceOnUse" width="16" height="16">
    <path d="M 16 0 L 0 0 0 16" fill="none" stroke="rgba(255,255,255,0.05)" stroke-width="1"/>
  </pattern>
  <rect width="600" height="400" fill="url(#minecraft-grid)" />
  
  <!-- Hills in the background -->
  <path d="M0,250 Q150,200 300,250 Q450,300 600,250 L600,400 L0,400 Z" fill="#2D3A4F" opacity="0.7" />
  
  <!-- Grass Blocks -->
  <g transform="translate(50, 250)">
    <!-- Row 1 with varied heights -->
    <rect x="0" y="0" width="50" height="50" fill="#54AA54" />
    <rect x="0" y="10" width="50" height="40" fill="#8B5A2B" />
    
    <rect x="50" y="-10" width="50" height="60" fill="#54AA54" />
    <rect x="50" y="0" width="50" height="50" fill="#8B5A2B" />
    
    <rect x="100" y="5" width="50" height="45" fill="#54AA54" />
    <rect x="100" y="15" width="50" height="35" fill="#8B5A2B" />
    
    <rect x="150" y="-5" width="50" height="55" fill="#54AA54" />
    <rect x="150" y="5" width="50" height="45" fill="#8B5A2B" />
    
    <rect x="200" y="0" width="50" height="50" fill="#54AA54" />
    <rect x="200" y="10" width="50" height="40" fill="#8B5A2B" />
    
    <rect x="250" y="-15" width="50" height="65" fill="#54AA54" />
    <rect x="250" y="-5" width="50" height="55" fill="#8B5A2B" />
    
    <rect x="300" y="0" width="50" height="50" fill="#54AA54" />
    <rect x="300" y="10" width="50" height="40" fill="#8B5A2B" />
    
    <rect x="350" y="5" width="50" height="45" fill="#54AA54" />
    <rect x="350" y="15" width="50" height="35" fill="#8B5A2B" />
    
    <rect x="400" y="-10" width="50" height="60" fill="#54AA54" />
    <rect x="400" y="0" width="50" height="50" fill="#8B5A2B" />
    
    <rect x="450" y="0" width="50" height="50" fill="#54AA54" />
    <rect x="450" y="10" width="50" height="40" fill="#8B5A2B" />
    
    <!-- Row 2 -->
    <rect x="0" y="50" width="50" height="50" fill="#8B5A2B" />
    <rect x="50" y="50" width="50" height="50" fill="#8B5A2B" />
    <rect x="100" y="50" width="50" height="50" fill="#8B5A2B" />
    <rect x="150" y="50" width="50" height="50" fill="#8B5A2B" />
    <rect x="200" y="50" width="50" height="50" fill="#8B5A2B" />
    <rect x="250" y="50" width="50" height="50" fill="#8B5A2B" />
    <rect x="300" y="50" width="50" height="50" fill="#8B5A2B" />
    <rect x="350" y="50" width="50" height="50" fill="#8B5A2B" />
    <rect x="400" y="50" width="50" height="50" fill="#8B5A2B" />
    <rect x="450" y="50" width="50" height="50" fill="#8B5A2B" />
  </g>
  
  <!-- Trees -->
  <g transform="translate(100, 100)">
    <!-- Trunk -->
    <rect x="15" y="30" width="20" height="50" fill="#8B4513" />
    <!-- Leaves - layered for 3D effect -->
    <rect x="-10" y="0" width="70" height="10" fill="#2E8B57" />
    <rect x="0" y="-10" width="50" height="30" fill="#2E8B57" />
    <rect x="5" y="-20" width="40" height="20" fill="#2E8B57" />
    <rect x="10" y="-30" width="30" height="20" fill="#2E8B57" />
  </g>
  
  <g transform="translate(400, 120)">
    <!-- Trunk -->
    <rect x="15" y="30" width="20" height="50" fill="#8B4513" />
    <!-- Leaves - layered for 3D effect -->
    <rect x="-10" y="0" width="70" height="10" fill="#2E8B57" />
    <rect x="0" y="-10" width="50" height="30" fill="#2E8B57" />
    <rect x="5" y="-20" width="40" height="20" fill="#2E8B57" />
    <rect x="10" y="-30" width="30" height="20" fill="#2E8B57" />
  </g>
  
  <!-- Multiple Minecraft Player Heads with Speech Bubbles -->
  
  <!-- Player 1 - Notch -->
  <g transform="translate(150, 150)">
    <!-- Player Head using Minecraft API -->
    <image x="0" y="0" width="40" height="40" href="https://mc-heads.net/avatar/Notch/40" />
    
    <!-- Speech Bubble -->
    <path d="M 45,10 L 140,10 L 140,40 L 65,40 L 55,50 L 55,40 L 45,40 Z" fill="white" stroke="#000" stroke-width="2" />
    <text x="50" y="25" font-family="'Press Start 2P', monospace" font-size="8" fill="black">BizzyNATION is the</text>
    <text x="50" y="35" font-family="'Press Start 2P', monospace" font-size="8" fill="black">best server ever!</text>
  </g>
  
  <!-- Player 2 - Jeb -->
  <g transform="translate(350, 180)">
    <!-- Player Head using Minecraft API -->
    <image x="0" y="0" width="40" height="40" href="https://mc-heads.net/avatar/jeb_/40" />
    
    <!-- Speech Bubble -->
    <path d="M -20,15 L -120,15 L -120,45 L -40,45 L -30,55 L -30,45 L -20,45 Z" fill="white" stroke="#000" stroke-width="2" />
    <text x="-115" y="30" font-family="'Press Start 2P', monospace" font-size="8" fill="black">So many diamonds</text>
    <text x="-115" y="40" font-family="'Press Start 2P', monospace" font-size="8" fill="black">on this server!</text>
  </g>
  
  <!-- Player 3 - Dinnerbone -->
  <g transform="translate(250, 100)">
    <!-- Player Head using Minecraft API -->
    <image x="0" y="0" width="40" height="40" href="https://mc-heads.net/avatar/Dinnerbone/40" />
    
    <!-- Speech Bubble -->
    <path d="M 45,10 L 150,10 L 150,40 L 65,40 L 55,50 L 55,40 L 45,40 Z" fill="white" stroke="#000" stroke-width="2" />
    <text x="50" y="25" font-family="'Press Start 2P', monospace" font-size="8" fill="black">Bizzy's streams are</text>
    <text x="50" y="35" font-family="'Press Start 2P', monospace" font-size="8" fill="black">awesome!</text>
  </g>
  
  <!-- Player 4 - Grumm -->
  <g transform="translate(450, 150)">
    <!-- Player Head using Minecraft API -->
    <image x="0" y="0" width="40" height="40" href="https://mc-heads.net/avatar/Grumm/40" />
    
    <!-- Speech Bubble -->
    <path d="M -20,15 L -120,15 L -120,45 L -40,45 L -30,55 L -30,45 L -20,45 Z" fill="white" stroke="#000" stroke-width="2" />
    <text x="-115" y="30" font-family="'Press Start 2P', monospace" font-size="8" fill="black">The community here</text>
    <text x="-115" y="40" font-family="'Press Start 2P', monospace" font-size="8" fill="black">is amazing!</text>
  </g>
  
  <!-- Player 5 - Herobrine -->
  <g transform="translate(200, 200)">
    <!-- Player Head using Minecraft API -->
    <image x="0" y="0" width="40" height="40" href="https://mc-heads.net/avatar/Herobrine/40" />
    
    <!-- Speech Bubble -->
    <path d="M 45,15 L 150,15 L 150,45 L 65,45 L 55,55 L 55,45 L 45,45 Z" fill="white" stroke="#000" stroke-width="2" />
    <text x="50" y="30" font-family="'Press Start 2P', monospace" font-size="8" fill="black">BizzyNATION has the</text>
    <text x="50" y="40" font-family="'Press Start 2P', monospace" font-size="8" fill="black">best builds! Sssss...</text>
  </g>
  
  <!-- Player 6 - Honeydew -->
  <g transform="translate(100, 180)">
    <!-- Player Head using Minecraft API -->
    <image x="0" y="0" width="40" height="40" href="https://mc-heads.net/avatar/Honeydew/40" />
    
    <!-- Speech Bubble -->
    <path d="M -20,15 L -120,15 L -120,45 L -40,45 L -30,55 L -30,45 L -20,45 Z" fill="white" stroke="#000" stroke-width="2" />
    <text x="-115" y="30" font-family="'Press Start 2P', monospace" font-size="8" fill="black">I found diamonds!</text>
    <text x="-115" y="40" font-family="'Press Start 2P', monospace" font-size="8" fill="black">BizzyNATION rocks!</text>
  </g>
  
  <!-- Player 7 - Xephos -->
  <g transform="translate(400, 220)">
    <!-- Player Head using Minecraft API -->
    <image x="0" y="0" width="40" height="40" href="https://mc-heads.net/avatar/Xephos/40" />
    
    <!-- Speech Bubble -->
    <path d="M -20,15 L -120,15 L -120,45 L -40,45 L -30,55 L -30,45 L -20,45 Z" fill="white" stroke="#000" stroke-width="2" />
    <text x="-115" y="30" font-family="'Press Start 2P', monospace" font-size="8" fill="black">Best trades ever</text>
    <text x="-115" y="40" font-family="'Press Start 2P', monospace" font-size="8" fill="black">on BizzyNATION!</text>
  </g>
  
  <!-- Player 8 - Grian -->
  <g transform="translate(300, 150)">
    <!-- Player Head using Minecraft API -->
    <image x="0" y="0" width="40" height="40" href="https://mc-heads.net/avatar/Grian/40" />
    
    <!-- Speech Bubble -->
    <path d="M 45,15 L 150,15 L 150,45 L 65,45 L 55,55 L 55,45 L 45,45 Z" fill="white" stroke="#000" stroke-width="2" />
    <text x="50" y="30" font-family="'Press Start 2P', monospace" font-size="8" fill="black">I never miss a shot</text>
    <text x="50" y="40" font-family="'Press Start 2P', monospace" font-size="8" fill="black">on BizzyNATION!</text>
  </g>
  
  <!-- Player 9 - Dream -->
  <g transform="translate(180, 120)">
    <!-- Player Head using Minecraft API -->
    <image x="0" y="0" width="40" height="40" href="https://mc-heads.net/avatar/Dream/40" />
    
    <!-- Speech Bubble -->
    <path d="M 45,15 L 150,15 L 150,45 L 65,45 L 55,55 L 55,45 L 45,45 Z" fill="white" stroke="#000" stroke-width="2" />
    <text x="50" y="30" font-family="'Press Start 2P', monospace" font-size="8" fill="black">This is the best</text>
    <text x="50" y="40" font-family="'Press Start 2P', monospace" font-size="8" fill="black">server ever, man!</text>
  </g>
  
  <!-- Player 10 - Technoblade -->
  <g transform="translate(320, 220)">
    <!-- Player Head using Minecraft API -->
    <image x="0" y="0" width="40" height="40" href="https://mc-heads.net/avatar/Technoblade/40" />
    
    <!-- Speech Bubble -->
    <path d="M 45,15 L 150,15 L 150,45 L 65,45 L 55,55 L 55,45 L 45,45 Z" fill="white" stroke="#000" stroke-width="2" />
    <text x="50" y="30" font-family="'Press Start 2P', monospace" font-size="8" fill="black">BizzyNATION never</text>
    <text x="50" y="40" font-family="'Press Start 2P', monospace" font-size="8" fill="black">dies! Blood for...</text>
  </g>
  
  <!-- Player 11 - GeorgeNotFound -->
  <g transform="translate(120, 130)">
    <!-- Player Head using Minecraft API -->
    <image x="0" y="0" width="40" height="40" href="https://mc-heads.net/avatar/GeorgeNotFound/40" />
    
    <!-- Speech Bubble -->
    <path d="M 45,15 L 150,15 L 150,45 L 65,45 L 55,55 L 55,45 L 45,45 Z" fill="white" stroke="#000" stroke-width="2" />
    <text x="50" y="30" font-family="'Press Start 2P', monospace" font-size="8" fill="black">Found the perfect</text>
    <text x="50" y="40" font-family="'Press Start 2P', monospace" font-size="8" fill="black">base location!</text>
  </g>
  
  <!-- Player 12 - Sapnap -->
  <g transform="translate(380, 130)">
    <!-- Player Head using Minecraft API -->
    <image x="0" y="0" width="40" height="40" href="https://mc-heads.net/avatar/Sapnap/40" />
    
    <!-- Speech Bubble -->
    <path d="M -20,15 L -120,15 L -120,45 L -40,45 L -30,55 L -30,45 L -20,45 Z" fill="white" stroke="#000" stroke-width="2" />
    <text x="-115" y="30" font-family="'Press Start 2P', monospace" font-size="8" fill="black">Bizzy's events are</text>
    <text x="-115" y="40" font-family="'Press Start 2P', monospace" font-size="8" fill="black">fire! Love it!</text>
  </g>
  
  <!-- Player 13 - Philza -->
  <g transform="translate(220, 160)">
    <!-- Player Head using Minecraft API -->
    <image x="0" y="0" width="40" height="40" href="https://mc-heads.net/avatar/Ph1LzA/40" />
    
    <!-- Speech Bubble -->
    <path d="M -20,15 L -120,15 L -120,45 L -40,45 L -30,55 L -30,45 L -20,45 Z" fill="white" stroke="#000" stroke-width="2" />
    <text x="-115" y="30" font-family="'Press Start 2P', monospace" font-size="8" fill="black">5 years and still</text>
    <text x="-115" y="40" font-family="'Press Start 2P', monospace" font-size="8" fill="black">no creeper deaths!</text>
  </g>
  
  <!-- Player 14 - TommyInnit -->
  <g transform="translate(280, 190)">
    <!-- Player Head using Minecraft API -->
    <image x="0" y="0" width="40" height="40" href="https://mc-heads.net/avatar/TommyInnit/40" />
    
    <!-- Speech Bubble -->
    <path d="M 45,15 L 150,15 L 150,45 L 65,45 L 55,55 L 55,45 L 45,45 Z" fill="white" stroke="#000" stroke-width="2" />
    <text x="50" y="30" font-family="'Press Start 2P', monospace" font-size="8" fill="black">This is the best</text>
    <text x="50" y="40" font-family="'Press Start 2P', monospace" font-size="8" fill="black">server ever, man!</text>
  </g>
  
  <!-- Player 15 - Wilbur Soot -->
  <g transform="translate(430, 190)">
    <!-- Player Head using Minecraft API -->
    <image x="0" y="0" width="40" height="40" href="https://mc-heads.net/avatar/WilburSoot/40" />
    
    <!-- Speech Bubble -->
    <path d="M -20,15 L -120,15 L -120,45 L -40,45 L -30,55 L -30,45 L -20,45 Z" fill="white" stroke="#000" stroke-width="2" />
    <text x="-115" y="30" font-family="'Press Start 2P', monospace" font-size="8" fill="black">I won't blow up</text>
    <text x="-115" y="40" font-family="'Press Start 2P', monospace" font-size="8" fill="black">BizzyNATION! ♥</text>
  </g>
  
  <!-- Player 16 - Bizzy (your username) -->
  <g transform="translate(300, 80)">
    <!-- Player Head using Minecraft API -->
    <image x="0" y="0" width="60" height="60" href="https://mc-heads.net/avatar/Bizzy/60" />
    
    <!-- Speech Bubble -->
    <path d="M 65,20 L 180,20 L 180,60 L 85,60 L 75,70 L 75,60 L 65,60 Z" fill="white" stroke="#000" stroke-width="2" />
    <text x="70" y="40" font-family="'Press Start 2P', monospace" font-size="10" fill="black">Welcome to</text>
    <text x="70" y="52" font-family="'Press Start 2P', monospace" font-size="10" fill="black">BizzyNATION!</text>
  </g>
  
  <!-- Server Name with glow effect -->
  <filter id="glow" x="-20%" y="-20%" width="140%" height="140%">
    <feGaussianBlur stdDeviation="3" result="blur" />
    <feComposite in="SourceGraphic" in2="blur" operator="over" />
  </filter>
  
  <g filter="url(#glow)">
    <text x="300" y="50" font-family="'Press Start 2P', monospace" font-size="24" fill="#FFFFFF" text-anchor="middle">BizzyNATION</text>
    <text x="300" y="80" font-family="'Press Start 2P', monospace" font-size="16" fill="#54AA54" text-anchor="middle">play.bizzynation.co.uk</text>
  </g>
  
  <!-- Overlay for better text readability -->
  <rect x="0" y="0" width="600" height="100" fill="url(#sky-gradient)" opacity="0.7" />
</svg> 